<svg width="100" height="20" viewBox="0 0 100 20" fill="none" xmlns="http://www.w3.org/2000/svg">
<path d="M86.9504 5.75C89.4754 5.75 91.0504 7.4 91.0504 9.725C91.0504 10.675 90.8504 11.325 89.2254 18.975H85.1754C86.7254 11.65 86.8254 11.275 86.8254 10.825C86.8254 9.85 86.2254 9.275 85.2754 9.275C83.8254 9.275 82.5004 10.425 82.2504 11.7V11.675L80.7254 18.975H76.5004L79.2004 6.05H83.4254L83.1754 7.275C84.1254 6.3 85.4754 5.75 86.9504 5.75Z" fill="#07A50F"/>
<path d="M75.7982 4.45C74.5732 4.45 73.7232 3.55 73.7232 2.425C73.7232 1.075 74.9232 0 76.1732 0C77.3232 0 78.1732 0.925 78.1732 2.05C78.1732 3.325 77.0232 4.45 75.7982 4.45ZM70.3732 18.975L73.0732 6.05H77.2982L74.5982 18.975H70.3732Z" fill="#07A50F"/>
<path d="M53.9463 18.975L57.5213 1.8H66.3713C69.1463 1.8 71.0213 3.375 71.0213 5.55C71.0213 7.5 69.7213 9.2 67.7713 10.075C69.1713 10.75 70.0963 12.125 70.0963 13.7C70.0963 16.95 66.9463 18.975 63.4213 18.975H53.9463ZM60.3713 8.6H63.9213C65.3963 8.6 66.5213 7.675 66.5213 6.45C66.4963 5.775 65.9463 5.42499 64.8463 5.42499H61.0213L60.3713 8.6ZM58.9463 15.35H63.1463C64.7213 15.35 65.9213 14.375 65.9213 13.05C65.9213 12.3 65.3213 11.9 64.1213 11.9H59.6713L58.9463 15.35Z" fill="#07A50F"/>
<path d="M45.5521 19.275C42.0521 19.275 39.4771 16.7 39.4771 13.5C39.4771 9.225 43.6521 5.75 47.8521 5.75C51.3521 5.75 53.9271 8.325 53.9271 11.5C53.9271 15.75 49.7521 19.275 45.5521 19.275ZM45.8021 15.75C47.9271 15.75 50.0021 13.625 50.0021 11.6C50.0021 10.3 49.0021 9.275 47.6271 9.275C45.4521 9.275 43.4021 11.35 43.4021 13.4C43.4021 14.725 44.4271 15.75 45.8021 15.75Z" fill="black"/>
<path d="M35.3158 8.25C36.4408 6.675 38.0908 5.75 39.9408 5.75L39.4908 9.275C36.8658 9.275 34.7658 10.925 34.2658 13.325V13.275L33.0658 18.975H28.8408L31.5408 6.05H35.7658L35.3158 8.25Z" fill="black"/>
<path d="M23.0027 13.675H20.1527V13.725C20.1527 15.125 20.9027 15.85 22.2527 15.85C23.4527 15.85 24.6777 15.35 25.6527 14.625L27.8027 17.375C26.4277 18.575 24.2277 19.275 22.2527 19.275C18.6777 19.275 16.4277 17.05 16.4277 13.775C16.4277 9.325 20.0027 5.75 24.4027 5.75C27.3027 5.75 29.3527 7.2 29.3527 9.275C29.3527 12.15 27.0027 13.8 23.0027 13.675ZM24.2527 9.15C22.8277 9.15 21.6277 9.95 20.9027 11.1H23.5027C24.8277 11.1 25.6277 10.675 25.6277 9.975C25.6277 9.5 25.0527 9.15 24.2527 9.15Z" fill="black"/>
<path d="M0 18.975L0.575 15.775L11.275 5.625H2.925L3.725 1.8H17.975L17.35 5L6.725 15.15H15.325L14.525 18.975H0Z" fill="black"/>
<circle cx="95.675" cy="15.475" r="3.5" fill="#07A50F"/>
</svg>
